# xmcd
#
# Track frame offsets: 
#        150
#        14506
#        71843
#        92338
#        121536
#        150222
#        164870
#
# Disc length: 2429 seconds
#
# Revision: 2
# Processed by: cddbd v1.5.2PL0 Copyright (c) Steve Scherf et al.
# Submitted via: ExactAudioCopy v0.99pb5
#
DISCID=4c097b07
DTITLE=Mira Kubasinska and Breakout - Ogien
DYEAR=1973
DGENRE=Blues
TTITLE0=Nie Zapalaj Swiatla
TTITLE1=Wielki Ogien
TTITLE2=Liscie Zabral Wiatr
TTITLE3=Na Dnie Moich Oczu
TTITLE4=Masz To Dzis
TTITLE5=Czarno-Czarny Film
TTITLE6=Dales Mi Pierscien
EXTD=
EXTT0=
EXTT1=
EXTT2=
EXTT3=
EXTT4=
EXTT5=
EXTT6=
PLAYORDER=
